<svg width="296" height="149" viewBox="0 0 296 149" fill="none" xmlns="http://www.w3.org/2000/svg">
<path d="M44.8334 51.7876L44.8778 52.8515C45.0237 52.5047 45.0351 52.1242 44.8334 51.7876Z" fill="url(#paint0_linear_5965_47077)"/>
<path d="M241.376 105.709C240.589 105.173 240.388 104.099 240.924 103.312C243.067 100.17 245.723 99.5488 247.857 99.0495C249.802 98.5944 251.34 98.2354 252.728 96.2014C254.116 94.1674 253.891 92.6031 253.606 90.6225C253.293 88.4507 252.904 85.7482 255.048 82.6055C257.192 79.4633 259.847 78.8422 261.982 78.3445C263.928 77.8905 265.465 77.5303 266.852 75.4968C268.238 73.4634 268.014 71.8985 267.728 69.9184C267.416 67.7466 267.026 65.0444 269.169 61.9021C271.312 58.7599 273.968 58.1388 276.102 57.641C278.049 57.187 279.586 56.8267 280.972 54.7934C281.509 54.006 282.58 53.8044 283.367 54.3411C284.153 54.878 284.355 55.9513 283.819 56.7387C281.675 59.881 279.02 60.502 276.885 60.9998C274.939 61.4538 273.402 61.8139 272.015 63.8474C270.628 65.8809 270.853 67.4457 271.139 69.4258C271.451 71.5977 271.841 74.2999 269.698 77.4421C267.555 80.5843 264.899 81.2054 262.765 81.7032C260.818 82.1572 259.281 82.5176 257.895 84.5508C256.507 86.5848 256.732 88.1491 257.017 90.1297C257.33 92.3015 257.719 95.004 255.575 98.1467C253.431 101.289 250.776 101.91 248.642 102.409C246.696 102.864 245.158 103.223 243.77 105.257C243.234 106.043 242.162 106.246 241.376 105.709Z" fill="#82FDB8"/>
<path d="M247.381 70.6141C250.127 71.9216 246.257 59.5255 241.357 61.9052C236.457 64.2848 233.271 72.3996 237.922 69.0467C241.855 66.2112 242.995 68.5273 247.381 70.6141Z" fill="#86E29B"/>
<mask id="path-4-inside-1_5965_47077" fill="white">
<path d="M46.8291 22.285C46.8291 20.9571 47.9056 19.8806 49.2335 19.8806H242.548C243.876 19.8806 244.952 20.9571 244.952 22.285V75.0939C244.952 76.4218 243.876 77.4983 242.548 77.4983H49.2335C47.9056 77.4983 46.8291 76.4218 46.8291 75.0939V22.285Z"/>
</mask>
<path d="M46.8291 22.285C46.8291 20.9571 47.9056 19.8806 49.2335 19.8806H242.548C243.876 19.8806 244.952 20.9571 244.952 22.285V75.0939C244.952 76.4218 243.876 77.4983 242.548 77.4983H49.2335C47.9056 77.4983 46.8291 76.4218 46.8291 75.0939V22.285Z" fill="#FFD33D" fill-opacity="0.1"/>
<path d="M61.2557 25.8916C57.9436 25.8916 55.2446 28.5906 55.2446 31.9026C55.2446 35.2147 57.9436 37.9137 61.2557 37.9137C64.5678 37.9137 67.2667 35.2147 67.2667 31.9026C67.2667 28.5906 64.5678 25.8916 61.2557 25.8916ZM60.8048 29.4982C60.8048 29.2518 61.0092 29.0474 61.2557 29.0474C61.5021 29.0474 61.7065 29.2518 61.7065 29.4982V32.5038C61.7065 32.7502 61.5021 32.9546 61.2557 32.9546C61.0092 32.9546 60.8048 32.7502 60.8048 32.5038V29.4982ZM61.8087 34.5355C61.7786 34.6136 61.7366 34.6737 61.6825 34.7339C61.6224 34.788 61.5562 34.83 61.4841 34.8601C61.412 34.8901 61.3338 34.9082 61.2557 34.9082C61.1775 34.9082 61.0994 34.8901 61.0273 34.8601C60.9551 34.83 60.889 34.788 60.8289 34.7339C60.7748 34.6737 60.7327 34.6136 60.7027 34.5355C60.6726 34.4634 60.6546 34.3852 60.6546 34.3071C60.6546 34.2289 60.6726 34.1508 60.7027 34.0786C60.7327 34.0065 60.7748 33.9404 60.8289 33.8803C60.889 33.8262 60.9551 33.7841 61.0273 33.7541C61.1715 33.6939 61.3398 33.6939 61.4841 33.7541C61.5562 33.7841 61.6224 33.8262 61.6825 33.8803C61.7366 33.9404 61.7786 34.0065 61.8087 34.0786C61.8387 34.1508 61.8568 34.2289 61.8568 34.3071C61.8568 34.3852 61.8387 34.4634 61.8087 34.5355Z" fill="#F66A0A"/>
<path d="M76.8777 42.6895V33.1215H73.5817V31.3295H82.0617V33.1215H78.7497V42.6895H76.8777ZM85.1748 42.6895H83.4148V30.6895H85.1748V35.7775C85.6762 34.9455 86.4868 34.5295 87.6068 34.5295C88.5348 34.5295 89.2762 34.8335 89.8308 35.4415C90.3855 36.0495 90.6628 36.8601 90.6628 37.8735V42.6895H88.9028V38.1615C88.9028 37.5215 88.7535 37.0255 88.4548 36.6735C88.1562 36.3108 87.7508 36.1295 87.2388 36.1295C86.6308 36.1295 86.1348 36.3588 85.7508 36.8175C85.3668 37.2761 85.1748 37.9215 85.1748 38.7535V42.6895ZM93.7948 32.9455C93.4748 32.9455 93.1975 32.8335 92.9628 32.6095C92.7282 32.3748 92.6108 32.0921 92.6108 31.7615C92.6108 31.4415 92.7282 31.1695 92.9628 30.9455C93.1975 30.7108 93.4748 30.5935 93.7948 30.5935C94.1255 30.5935 94.4028 30.7108 94.6268 30.9455C94.8508 31.1695 94.9628 31.4415 94.9628 31.7615C94.9628 32.0921 94.8508 32.3748 94.6268 32.6095C94.4028 32.8335 94.1255 32.9455 93.7948 32.9455ZM92.9148 42.6895V34.6895H94.6748V42.6895H92.9148ZM99.5838 42.8495C98.8478 42.8495 98.1972 42.7108 97.6318 42.4335C97.0665 42.1455 96.6452 41.7188 96.3678 41.1535L97.6638 40.2255C97.8238 40.5668 98.0798 40.8388 98.4318 41.0415C98.7838 41.2335 99.1678 41.3295 99.5838 41.3295C99.9145 41.3295 100.187 41.2548 100.4 41.1055C100.624 40.9561 100.736 40.7481 100.736 40.4815C100.736 40.2468 100.645 40.0548 100.464 39.9055C100.293 39.7561 99.9732 39.6068 99.5038 39.4575L98.7998 39.2655C97.3812 38.8815 96.6825 38.0655 96.7038 36.8175C96.7038 36.1241 96.9758 35.5695 97.5198 35.1535C98.0638 34.7375 98.7465 34.5295 99.5678 34.5295C100.805 34.5295 101.707 34.9828 102.272 35.8895L101.056 36.8175C100.651 36.2735 100.144 36.0015 99.5358 36.0015C99.2478 36.0015 98.9972 36.0708 98.7838 36.2095C98.5705 36.3375 98.4638 36.5188 98.4638 36.7535C98.4638 36.9668 98.5332 37.1481 98.6718 37.2975C98.8105 37.4468 99.0612 37.5801 99.4238 37.6975L100.24 37.9375C100.987 38.1615 101.547 38.4655 101.92 38.8495C102.293 39.2228 102.48 39.7295 102.48 40.3695C102.48 41.1268 102.208 41.7295 101.664 42.1775C101.12 42.6255 100.427 42.8495 99.5838 42.8495ZM108.951 32.9455C108.631 32.9455 108.354 32.8335 108.119 32.6095C107.884 32.3748 107.767 32.0921 107.767 31.7615C107.767 31.4415 107.884 31.1695 108.119 30.9455C108.354 30.7108 108.631 30.5935 108.951 30.5935C109.282 30.5935 109.559 30.7108 109.783 30.9455C110.007 31.1695 110.119 31.4415 110.119 31.7615C110.119 32.0921 110.007 32.3748 109.783 32.6095C109.559 32.8335 109.282 32.9455 108.951 32.9455ZM108.071 42.6895V34.6895H109.831V42.6895H108.071ZM114.74 42.8495C114.004 42.8495 113.353 42.7108 112.788 42.4335C112.223 42.1455 111.801 41.7188 111.524 41.1535L112.82 40.2255C112.98 40.5668 113.236 40.8388 113.588 41.0415C113.94 41.2335 114.324 41.3295 114.74 41.3295C115.071 41.3295 115.343 41.2548 115.556 41.1055C115.78 40.9561 115.892 40.7481 115.892 40.4815C115.892 40.2468 115.801 40.0548 115.62 39.9055C115.449 39.7561 115.129 39.6068 114.66 39.4575L113.956 39.2655C112.537 38.8815 111.839 38.0655 111.86 36.8175C111.86 36.1241 112.132 35.5695 112.676 35.1535C113.22 34.7375 113.903 34.5295 114.724 34.5295C115.961 34.5295 116.863 34.9828 117.428 35.8895L116.212 36.8175C115.807 36.2735 115.3 36.0015 114.692 36.0015C114.404 36.0015 114.153 36.0708 113.94 36.2095C113.727 36.3375 113.62 36.5188 113.62 36.7535C113.62 36.9668 113.689 37.1481 113.828 37.2975C113.967 37.4468 114.217 37.5801 114.58 37.6975L115.396 37.9375C116.143 38.1615 116.703 38.4655 117.076 38.8495C117.449 39.2228 117.636 39.7295 117.636 40.3695C117.636 41.1268 117.364 41.7295 116.82 42.1775C116.276 42.6255 115.583 42.8495 114.74 42.8495ZM126.507 42.8495C125.419 42.8495 124.502 42.4441 123.755 41.6335C123.019 40.8228 122.651 39.8415 122.651 38.6895C122.651 37.5375 123.019 36.5561 123.755 35.7455C124.502 34.9348 125.419 34.5295 126.507 34.5295C127.051 34.5295 127.553 34.6521 128.011 34.8975C128.47 35.1321 128.822 35.4201 129.067 35.7615V34.6895H130.827V42.6895H129.067V41.6175C128.822 41.9588 128.47 42.2521 128.011 42.4975C127.553 42.7321 127.051 42.8495 126.507 42.8495ZM125.115 40.5135C125.563 41.0041 126.134 41.2495 126.827 41.2495C127.521 41.2495 128.091 41.0041 128.539 40.5135C128.987 40.0228 129.211 39.4148 129.211 38.6895C129.211 37.9641 128.987 37.3561 128.539 36.8655C128.091 36.3748 127.521 36.1295 126.827 36.1295C126.134 36.1295 125.563 36.3748 125.115 36.8655C124.667 37.3561 124.443 37.9641 124.443 38.6895C124.443 39.4148 124.667 40.0228 125.115 40.5135ZM139.521 42.8495C138.785 42.8495 138.135 42.7108 137.569 42.4335C137.004 42.1455 136.583 41.7188 136.305 41.1535L137.601 40.2255C137.761 40.5668 138.017 40.8388 138.369 41.0415C138.721 41.2335 139.105 41.3295 139.521 41.3295C139.852 41.3295 140.124 41.2548 140.337 41.1055C140.561 40.9561 140.673 40.7481 140.673 40.4815C140.673 40.2468 140.583 40.0548 140.401 39.9055C140.231 39.7561 139.911 39.6068 139.441 39.4575L138.737 39.2655C137.319 38.8815 136.62 38.0655 136.641 36.8175C136.641 36.1241 136.913 35.5695 137.457 35.1535C138.001 34.7375 138.684 34.5295 139.505 34.5295C140.743 34.5295 141.644 34.9828 142.209 35.8895L140.993 36.8175C140.588 36.2735 140.081 36.0015 139.473 36.0015C139.185 36.0015 138.935 36.0708 138.721 36.2095C138.508 36.3375 138.401 36.5188 138.401 36.7535C138.401 36.9668 138.471 37.1481 138.609 37.2975C138.748 37.4468 138.999 37.5801 139.361 37.6975L140.177 37.9375C140.924 38.1615 141.484 38.4655 141.857 38.8495C142.231 39.2228 142.417 39.7295 142.417 40.3695C142.417 41.1268 142.145 41.7295 141.601 42.1775C141.057 42.6255 140.364 42.8495 139.521 42.8495ZM147.107 42.8495C146.19 42.8495 145.464 42.5455 144.931 41.9375C144.398 41.3188 144.131 40.4975 144.131 39.4735V34.6895H145.891V39.1855C145.891 39.8255 146.03 40.3321 146.307 40.7055C146.584 41.0681 146.979 41.2495 147.491 41.2495C148.088 41.2495 148.563 41.0255 148.915 40.5775C149.267 40.1188 149.443 39.4681 149.443 38.6255V34.6895H151.203V42.6895H149.443V41.6015C148.974 42.4335 148.195 42.8495 147.107 42.8495ZM156.115 42.8495C155.379 42.8495 154.728 42.7108 154.163 42.4335C153.598 42.1455 153.176 41.7188 152.899 41.1535L154.195 40.2255C154.355 40.5668 154.611 40.8388 154.963 41.0415C155.315 41.2335 155.699 41.3295 156.115 41.3295C156.446 41.3295 156.718 41.2548 156.931 41.1055C157.155 40.9561 157.267 40.7481 157.267 40.4815C157.267 40.2468 157.176 40.0548 156.995 39.9055C156.824 39.7561 156.504 39.6068 156.035 39.4575L155.331 39.2655C153.912 38.8815 153.214 38.0655 153.235 36.8175C153.235 36.1241 153.507 35.5695 154.051 35.1535C154.595 34.7375 155.278 34.5295 156.099 34.5295C157.336 34.5295 158.238 34.9828 158.803 35.8895L157.587 36.8175C157.182 36.2735 156.675 36.0015 156.067 36.0015C155.779 36.0015 155.528 36.0708 155.315 36.2095C155.102 36.3375 154.995 36.5188 154.995 36.7535C154.995 36.9668 155.064 37.1481 155.203 37.2975C155.342 37.4468 155.592 37.5801 155.955 37.6975L156.771 37.9375C157.518 38.1615 158.078 38.4655 158.451 38.8495C158.824 39.2228 159.011 39.7295 159.011 40.3695C159.011 41.1268 158.739 41.7295 158.195 42.1775C157.651 42.6255 156.958 42.8495 156.115 42.8495ZM162.597 46.0335H160.837V34.6895H162.597V35.7615C162.842 35.4201 163.194 35.1321 163.653 34.8975C164.122 34.6521 164.629 34.5295 165.173 34.5295C166.261 34.5295 167.173 34.9348 167.909 35.7455C168.655 36.5561 169.029 37.5375 169.029 38.6895C169.029 39.8415 168.655 40.8228 167.909 41.6335C167.173 42.4441 166.261 42.8495 165.173 42.8495C164.629 42.8495 164.122 42.7321 163.653 42.4975C163.194 42.2521 162.842 41.9588 162.597 41.6175V46.0335ZM164.853 41.2495C165.546 41.2495 166.117 41.0041 166.565 40.5135C167.013 40.0228 167.237 39.4148 167.237 38.6895C167.237 37.9641 167.013 37.3561 166.565 36.8655C166.117 36.3748 165.546 36.1295 164.853 36.1295C164.149 36.1295 163.573 36.3748 163.125 36.8655C162.677 37.3561 162.453 37.9641 162.453 38.6895C162.453 39.4148 162.677 40.0228 163.125 40.5135C163.573 41.0041 164.149 41.2495 164.853 41.2495ZM171.701 32.9455C171.381 32.9455 171.104 32.8335 170.869 32.6095C170.634 32.3748 170.517 32.0921 170.517 31.7615C170.517 31.4415 170.634 31.1695 170.869 30.9455C171.104 30.7108 171.381 30.5935 171.701 30.5935C172.032 30.5935 172.309 30.7108 172.533 30.9455C172.757 31.1695 172.869 31.4415 172.869 31.7615C172.869 32.0921 172.757 32.3748 172.533 32.6095C172.309 32.8335 172.032 32.9455 171.701 32.9455ZM170.821 42.6895V34.6895H172.581V42.6895H170.821ZM178.594 42.8495C177.389 42.8495 176.381 42.4548 175.57 41.6655C174.77 40.8655 174.37 39.8735 174.37 38.6895C174.37 37.5055 174.77 36.5188 175.57 35.7295C176.381 34.9295 177.389 34.5295 178.594 34.5295C179.415 34.5295 180.151 34.7268 180.802 35.1215C181.463 35.5161 181.97 36.0548 182.322 36.7375L180.786 37.5695C180.583 37.1428 180.29 36.8015 179.906 36.5455C179.522 36.2895 179.085 36.1615 178.594 36.1615C177.89 36.1615 177.309 36.4068 176.85 36.8975C176.391 37.3775 176.162 37.9748 176.162 38.6895C176.162 39.4041 176.391 40.0068 176.85 40.4975C177.309 40.9775 177.89 41.2175 178.594 41.2175C179.085 41.2175 179.522 41.0895 179.906 40.8335C180.29 40.5775 180.583 40.2361 180.786 39.8095L182.322 40.6415C181.97 41.3241 181.463 41.8628 180.802 42.2575C180.151 42.6521 179.415 42.8495 178.594 42.8495ZM184.81 32.9455C184.49 32.9455 184.213 32.8335 183.978 32.6095C183.744 32.3748 183.626 32.0921 183.626 31.7615C183.626 31.4415 183.744 31.1695 183.978 30.9455C184.213 30.7108 184.49 30.5935 184.81 30.5935C185.141 30.5935 185.418 30.7108 185.642 30.9455C185.866 31.1695 185.978 31.4415 185.978 31.7615C185.978 32.0921 185.866 32.3748 185.642 32.6095C185.418 32.8335 185.141 32.9455 184.81 32.9455ZM183.93 42.6895V34.6895H185.69V42.6895H183.93ZM194.647 41.6495C193.847 42.4495 192.855 42.8495 191.671 42.8495C190.487 42.8495 189.49 42.4495 188.679 41.6495C187.879 40.8388 187.479 39.8521 187.479 38.6895C187.479 37.5268 187.879 36.5455 188.679 35.7455C189.49 34.9348 190.487 34.5295 191.671 34.5295C192.855 34.5295 193.847 34.9348 194.647 35.7455C195.458 36.5455 195.863 37.5268 195.863 38.6895C195.863 39.8521 195.458 40.8388 194.647 41.6495ZM191.671 41.2175C192.365 41.2175 192.935 40.9775 193.383 40.4975C193.842 40.0068 194.071 39.4041 194.071 38.6895C194.071 37.9748 193.842 37.3775 193.383 36.8975C192.935 36.4068 192.365 36.1615 191.671 36.1615C190.967 36.1615 190.386 36.4068 189.927 36.8975C189.479 37.3775 189.255 37.9748 189.255 38.6895C189.255 39.4041 189.479 40.0068 189.927 40.4975C190.386 40.9775 190.967 41.2175 191.671 41.2175ZM200.498 42.8495C199.58 42.8495 198.855 42.5455 198.322 41.9375C197.788 41.3188 197.522 40.4975 197.522 39.4735V34.6895H199.282V39.1855C199.282 39.8255 199.42 40.3321 199.698 40.7055C199.975 41.0681 200.37 41.2495 200.882 41.2495C201.479 41.2495 201.954 41.0255 202.306 40.5775C202.658 40.1188 202.834 39.4681 202.834 38.6255V34.6895H204.594V42.6895H202.834V41.6015C202.364 42.4335 201.586 42.8495 200.498 42.8495ZM209.506 42.8495C208.77 42.8495 208.119 42.7108 207.554 42.4335C206.988 42.1455 206.567 41.7188 206.29 41.1535L207.586 40.2255C207.746 40.5668 208.002 40.8388 208.354 41.0415C208.706 41.2335 209.09 41.3295 209.506 41.3295C209.836 41.3295 210.108 41.2548 210.322 41.1055C210.546 40.9561 210.658 40.7481 210.658 40.4815C210.658 40.2468 210.567 40.0548 210.386 39.9055C210.215 39.7561 209.895 39.6068 209.426 39.4575L208.722 39.2655C207.303 38.8815 206.604 38.0655 206.626 36.8175C206.626 36.1241 206.898 35.5695 207.442 35.1535C207.986 34.7375 208.668 34.5295 209.49 34.5295C210.727 34.5295 211.628 34.9828 212.194 35.8895L210.978 36.8175C210.572 36.2735 210.066 36.0015 209.458 36.0015C209.17 36.0015 208.919 36.0708 208.706 36.2095C208.492 36.3375 208.386 36.5188 208.386 36.7535C208.386 36.9668 208.455 37.1481 208.594 37.2975C208.732 37.4468 208.983 37.5801 209.346 37.6975L210.162 37.9375C210.908 38.1615 211.468 38.4655 211.842 38.8495C212.215 39.2228 212.402 39.7295 212.402 40.3695C212.402 41.1268 212.13 41.7295 211.586 42.1775C211.042 42.6255 210.348 42.8495 209.506 42.8495ZM74.4617 66.6895V58.6895H76.2217V60.1135C76.371 59.6655 76.643 59.3028 77.0377 59.0255C77.443 58.7481 77.875 58.6095 78.3337 58.6095C78.611 58.6095 78.8404 58.6308 79.0217 58.6735V60.4815C78.7657 60.3855 78.4724 60.3375 78.1417 60.3375C77.6084 60.3375 77.155 60.5561 76.7817 60.9935C76.4084 61.4201 76.2217 62.0175 76.2217 62.7855V66.6895H74.4617ZM83.8746 66.8495C82.6586 66.8495 81.6559 66.4601 80.8666 65.6815C80.0879 64.9028 79.6986 63.9055 79.6986 62.6895C79.6986 61.5055 80.0933 60.5188 80.8826 59.7295C81.6719 58.9295 82.6693 58.5295 83.8746 58.5295C84.9839 58.5295 85.9013 58.8815 86.6266 59.5855C87.3626 60.2895 87.7306 61.2601 87.7306 62.4975C87.7306 62.7108 87.7253 62.9028 87.7146 63.0735H81.4266C81.4693 63.7241 81.7199 64.2521 82.1786 64.6575C82.6373 65.0521 83.2079 65.2495 83.8906 65.2495C84.9146 65.2495 85.6773 64.8441 86.1786 64.0335L87.5226 64.9935C86.7546 66.2308 85.5386 66.8495 83.8746 66.8495ZM81.5066 61.7935H85.9546C85.8586 61.2388 85.6079 60.8068 85.2026 60.4975C84.8079 60.1775 84.3439 60.0175 83.8106 60.0175C83.2559 60.0175 82.7599 60.1721 82.3226 60.4815C81.8959 60.7908 81.6239 61.2281 81.5066 61.7935ZM97.1398 70.0335H95.3798V65.6175C95.1345 65.9588 94.7825 66.2521 94.3238 66.4975C93.8652 66.7321 93.3638 66.8495 92.8198 66.8495C91.7318 66.8495 90.8145 66.4441 90.0678 65.6335C89.3318 64.8228 88.9638 63.8415 88.9638 62.6895C88.9638 61.5375 89.3318 60.5561 90.0678 59.7455C90.8145 58.9348 91.7318 58.5295 92.8198 58.5295C93.3638 58.5295 93.8652 58.6521 94.3238 58.8975C94.7825 59.1321 95.1345 59.4201 95.3798 59.7615V58.6895H97.1398V70.0335ZM91.4278 64.5135C91.8758 65.0041 92.4465 65.2495 93.1398 65.2495C93.8332 65.2495 94.4038 65.0041 94.8518 64.5135C95.2998 64.0228 95.5238 63.4148 95.5238 62.6895C95.5238 61.9641 95.2998 61.3561 94.8518 60.8655C94.4038 60.3748 93.8332 60.1295 93.1398 60.1295C92.4465 60.1295 91.8758 60.3748 91.4278 60.8655C90.9798 61.3561 90.7558 61.9641 90.7558 62.6895C90.7558 63.4148 90.9798 64.0228 91.4278 64.5135ZM102.388 66.8495C101.471 66.8495 100.746 66.5455 100.212 65.9375C99.6789 65.3188 99.4122 64.4975 99.4122 63.4735V58.6895H101.172V63.1855C101.172 63.8255 101.311 64.3321 101.588 64.7055C101.866 65.0681 102.26 65.2495 102.772 65.2495C103.37 65.2495 103.844 65.0255 104.196 64.5775C104.548 64.1188 104.724 63.4681 104.724 62.6255V58.6895H106.484V66.6895H104.724V65.6015C104.255 66.4335 103.476 66.8495 102.388 66.8495ZM112.468 66.8495C111.252 66.8495 110.25 66.4601 109.46 65.6815C108.682 64.9028 108.292 63.9055 108.292 62.6895C108.292 61.5055 108.687 60.5188 109.476 59.7295C110.266 58.9295 111.263 58.5295 112.468 58.5295C113.578 58.5295 114.495 58.8815 115.22 59.5855C115.956 60.2895 116.324 61.2601 116.324 62.4975C116.324 62.7108 116.319 62.9028 116.308 63.0735H110.02C110.063 63.7241 110.314 64.2521 110.772 64.6575C111.231 65.0521 111.802 65.2495 112.484 65.2495C113.508 65.2495 114.271 64.8441 114.772 64.0335L116.116 64.9935C115.348 66.2308 114.132 66.8495 112.468 66.8495ZM110.1 61.7935H114.548C114.452 61.2388 114.202 60.8068 113.796 60.4975C113.402 60.1775 112.938 60.0175 112.404 60.0175C111.85 60.0175 111.354 60.1721 110.916 60.4815C110.49 60.7908 110.218 61.2281 110.1 61.7935ZM120.678 66.8495C119.942 66.8495 119.291 66.7108 118.726 66.4335C118.16 66.1455 117.739 65.7188 117.462 65.1535L118.758 64.2255C118.918 64.5668 119.174 64.8388 119.526 65.0415C119.878 65.2335 120.262 65.3295 120.678 65.3295C121.008 65.3295 121.28 65.2548 121.494 65.1055C121.718 64.9561 121.83 64.7481 121.83 64.4815C121.83 64.2468 121.739 64.0548 121.558 63.9055C121.387 63.7561 121.067 63.6068 120.598 63.4575L119.894 63.2655C118.475 62.8815 117.776 62.0655 117.798 60.8175C117.798 60.1241 118.07 59.5695 118.614 59.1535C119.158 58.7375 119.84 58.5295 120.662 58.5295C121.899 58.5295 122.8 58.9828 123.366 59.8895L122.15 60.8175C121.744 60.2735 121.238 60.0015 120.63 60.0015C120.342 60.0015 120.091 60.0708 119.878 60.2095C119.664 60.3375 119.558 60.5188 119.558 60.7535C119.558 60.9668 119.627 61.1481 119.766 61.2975C119.904 61.4468 120.155 61.5801 120.518 61.6975L121.334 61.9375C122.08 62.1615 122.64 62.4655 123.014 62.8495C123.387 63.2228 123.574 63.7295 123.574 64.3695C123.574 65.1268 123.302 65.7295 122.758 66.1775C122.214 66.6255 121.52 66.8495 120.678 66.8495ZM128.762 66.7695C127.951 66.7695 127.29 66.5455 126.778 66.0975C126.277 65.6388 126.026 64.9775 126.026 64.1135V60.2575H124.362V58.6895H126.026V56.4655H127.786V58.6895H130.074V60.2575H127.786V63.8255C127.786 64.3161 127.893 64.6681 128.106 64.8815C128.319 65.0841 128.661 65.1855 129.13 65.1855C129.514 65.1855 129.829 65.1321 130.074 65.0255V66.5935C129.69 66.7108 129.253 66.7695 128.762 66.7695Z" fill="#24272A"/>
<path d="M46.8291 19.8806H244.952H46.8291ZM244.952 77.4983H46.8291H244.952ZM49.2335 77.4983C46.5777 77.4983 44.4247 75.3453 44.4247 72.6895V24.6895C44.4247 22.0336 46.5777 19.8806 49.2335 19.8806C49.2335 19.8806 49.2335 20.9571 49.2335 22.285V75.0939C49.2335 76.4218 49.2335 77.4983 49.2335 77.4983ZM244.952 19.8806V77.4983V19.8806Z" fill="#F66A0A" mask="url(#path-4-inside-1_5965_47077)"/>
<mask id="path-8-inside-2_5965_47077" fill="white">
<path d="M46.8291 58.3513C46.8291 57.0234 47.9056 55.9469 49.2335 55.9469H242.548C243.876 55.9469 244.952 57.0234 244.952 58.3513V111.16C244.952 112.488 243.876 113.565 242.548 113.565H49.2335C47.9056 113.565 46.8291 112.488 46.8291 111.16V58.3513Z"/>
</mask>
<path d="M46.8291 58.3513C46.8291 57.0234 47.9056 55.9469 49.2335 55.9469H242.548C243.876 55.9469 244.952 57.0234 244.952 58.3513V111.16C244.952 112.488 243.876 113.565 242.548 113.565H49.2335C47.9056 113.565 46.8291 112.488 46.8291 111.16V58.3513Z" fill="#D73847" fill-opacity="0.1"/>
<path d="M66.3133 69.6306L62.9968 63.2809C62.5511 62.4265 61.9345 61.958 61.2556 61.958C60.5768 61.958 59.9602 62.4265 59.5145 63.2809L56.198 69.6306C55.7783 70.4408 55.7317 71.218 56.0685 71.8298C56.4053 72.4417 57.0686 72.7779 57.9392 72.7779H64.5721C65.4427 72.7779 66.106 72.4417 66.4428 71.8298C66.7796 71.218 66.733 70.4353 66.3133 69.6306ZM60.867 65.8163C60.867 65.5904 61.0432 65.403 61.2556 65.403C61.4681 65.403 61.6443 65.5904 61.6443 65.8163V68.5723C61.6443 68.7983 61.4681 68.9857 61.2556 68.9857C61.0432 68.9857 60.867 68.7983 60.867 68.5723V65.8163ZM61.6236 70.6172C61.5977 70.6393 61.5717 70.6613 61.5458 70.6834C61.5147 70.7054 61.4837 70.722 61.4526 70.733C61.4215 70.7495 61.3904 70.7605 61.3541 70.766C61.323 70.7716 61.2867 70.7771 61.2556 70.7771C61.2246 70.7771 61.1883 70.7716 61.152 70.766C61.1209 70.7605 61.0898 70.7495 61.0587 70.733C61.0276 70.722 60.9965 70.7054 60.9655 70.6834C60.9395 70.6613 60.9136 70.6393 60.8877 70.6172C60.7944 70.5125 60.7374 70.3692 60.7374 70.2259C60.7374 70.0826 60.7944 69.9393 60.8877 69.8345C60.9136 69.8125 60.9395 69.7904 60.9655 69.7684C60.9965 69.7463 61.0276 69.7298 61.0587 69.7188C61.0898 69.7022 61.1209 69.6912 61.152 69.6857C61.2194 69.6692 61.2919 69.6692 61.3541 69.6857C61.3904 69.6912 61.4215 69.7022 61.4526 69.7188C61.4837 69.7298 61.5147 69.7463 61.5458 69.7684C61.5717 69.7904 61.5977 69.8125 61.6236 69.8345C61.7168 69.9393 61.7738 70.0826 61.7738 70.2259C61.7738 70.3692 61.7168 70.5125 61.6236 70.6172Z" fill="#D73847"/>
<path d="M76.8777 78.7557V69.1877H73.5817V67.3957H82.0617V69.1877H78.7497V78.7557H76.8777ZM85.1748 78.7557H83.4148V66.7557H85.1748V71.8437C85.6762 71.0117 86.4868 70.5957 87.6068 70.5957C88.5348 70.5957 89.2762 70.8997 89.8308 71.5077C90.3855 72.1157 90.6628 72.9264 90.6628 73.9397V78.7557H88.9028V74.2277C88.9028 73.5877 88.7535 73.0917 88.4548 72.7397C88.1562 72.3771 87.7508 72.1957 87.2388 72.1957C86.6308 72.1957 86.1348 72.4251 85.7508 72.8837C85.3668 73.3424 85.1748 73.9877 85.1748 74.8197V78.7557ZM93.7948 69.0117C93.4748 69.0117 93.1975 68.8997 92.9628 68.6757C92.7282 68.4411 92.6108 68.1584 92.6108 67.8277C92.6108 67.5077 92.7282 67.2357 92.9628 67.0117C93.1975 66.7771 93.4748 66.6597 93.7948 66.6597C94.1255 66.6597 94.4028 66.7771 94.6268 67.0117C94.8508 67.2357 94.9628 67.5077 94.9628 67.8277C94.9628 68.1584 94.8508 68.4411 94.6268 68.6757C94.4028 68.8997 94.1255 69.0117 93.7948 69.0117ZM92.9148 78.7557V70.7557H94.6748V78.7557H92.9148ZM99.5838 78.9157C98.8478 78.9157 98.1972 78.7771 97.6318 78.4997C97.0665 78.2117 96.6452 77.7851 96.3678 77.2197L97.6638 76.2917C97.8238 76.6331 98.0798 76.9051 98.4318 77.1077C98.7838 77.2997 99.1678 77.3957 99.5838 77.3957C99.9145 77.3957 100.187 77.3211 100.4 77.1717C100.624 77.0224 100.736 76.8144 100.736 76.5477C100.736 76.3131 100.645 76.1211 100.464 75.9717C100.293 75.8224 99.9732 75.6731 99.5038 75.5237L98.7998 75.3317C97.3812 74.9477 96.6825 74.1317 96.7038 72.8837C96.7038 72.1904 96.9758 71.6357 97.5198 71.2197C98.0638 70.8037 98.7465 70.5957 99.5678 70.5957C100.805 70.5957 101.707 71.0491 102.272 71.9557L101.056 72.8837C100.651 72.3397 100.144 72.0677 99.5358 72.0677C99.2478 72.0677 98.9972 72.1371 98.7838 72.2757C98.5705 72.4037 98.4638 72.5851 98.4638 72.8197C98.4638 73.0331 98.5332 73.2144 98.6718 73.3637C98.8105 73.5131 99.0612 73.6464 99.4238 73.7637L100.24 74.0037C100.987 74.2277 101.547 74.5317 101.92 74.9157C102.293 75.2891 102.48 75.7957 102.48 76.4357C102.48 77.1931 102.208 77.7957 101.664 78.2437C101.12 78.6917 100.427 78.9157 99.5838 78.9157ZM108.951 69.0117C108.631 69.0117 108.354 68.8997 108.119 68.6757C107.884 68.4411 107.767 68.1584 107.767 67.8277C107.767 67.5077 107.884 67.2357 108.119 67.0117C108.354 66.7771 108.631 66.6597 108.951 66.6597C109.282 66.6597 109.559 66.7771 109.783 67.0117C110.007 67.2357 110.119 67.5077 110.119 67.8277C110.119 68.1584 110.007 68.4411 109.783 68.6757C109.559 68.8997 109.282 69.0117 108.951 69.0117ZM108.071 78.7557V70.7557H109.831V78.7557H108.071ZM114.74 78.9157C114.004 78.9157 113.353 78.7771 112.788 78.4997C112.223 78.2117 111.801 77.7851 111.524 77.2197L112.82 76.2917C112.98 76.6331 113.236 76.9051 113.588 77.1077C113.94 77.2997 114.324 77.3957 114.74 77.3957C115.071 77.3957 115.343 77.3211 115.556 77.1717C115.78 77.0224 115.892 76.8144 115.892 76.5477C115.892 76.3131 115.801 76.1211 115.62 75.9717C115.449 75.8224 115.129 75.6731 114.66 75.5237L113.956 75.3317C112.537 74.9477 111.839 74.1317 111.86 72.8837C111.86 72.1904 112.132 71.6357 112.676 71.2197C113.22 70.8037 113.903 70.5957 114.724 70.5957C115.961 70.5957 116.863 71.0491 117.428 71.9557L116.212 72.8837C115.807 72.3397 115.3 72.0677 114.692 72.0677C114.404 72.0677 114.153 72.1371 113.94 72.2757C113.727 72.4037 113.62 72.5851 113.62 72.8197C113.62 73.0331 113.689 73.2144 113.828 73.3637C113.967 73.5131 114.217 73.6464 114.58 73.7637L115.396 74.0037C116.143 74.2277 116.703 74.5317 117.076 74.9157C117.449 75.2891 117.636 75.7957 117.636 76.4357C117.636 77.1931 117.364 77.7957 116.82 78.2437C116.276 78.6917 115.583 78.9157 114.74 78.9157ZM126.507 78.9157C125.419 78.9157 124.502 78.5104 123.755 77.6997C123.019 76.8891 122.651 75.9077 122.651 74.7557C122.651 73.6037 123.019 72.6224 123.755 71.8117C124.502 71.0011 125.419 70.5957 126.507 70.5957C127.051 70.5957 127.553 70.7184 128.011 70.9637C128.47 71.1984 128.822 71.4864 129.067 71.8277V70.7557H130.827V78.7557H129.067V77.6837C128.822 78.0251 128.47 78.3184 128.011 78.5637C127.553 78.7984 127.051 78.9157 126.507 78.9157ZM125.115 76.5797C125.563 77.0704 126.134 77.3157 126.827 77.3157C127.521 77.3157 128.091 77.0704 128.539 76.5797C128.987 76.0891 129.211 75.4811 129.211 74.7557C129.211 74.0304 128.987 73.4224 128.539 72.9317C128.091 72.4411 127.521 72.1957 126.827 72.1957C126.134 72.1957 125.563 72.4411 125.115 72.9317C124.667 73.4224 124.443 74.0304 124.443 74.7557C124.443 75.4811 124.667 76.0891 125.115 76.5797ZM140.257 78.9157C139.169 78.9157 138.252 78.5104 137.505 77.6997C136.769 76.8891 136.401 75.9077 136.401 74.7557C136.401 73.6037 136.769 72.6224 137.505 71.8117C138.252 71.0011 139.169 70.5957 140.257 70.5957C140.801 70.5957 141.303 70.7184 141.761 70.9637C142.22 71.1984 142.572 71.4864 142.817 71.8277V66.7557H144.577V78.7557H142.817V77.6837C142.572 78.0251 142.22 78.3184 141.761 78.5637C141.303 78.7984 140.801 78.9157 140.257 78.9157ZM138.865 76.5797C139.313 77.0704 139.884 77.3157 140.577 77.3157C141.271 77.3157 141.841 77.0704 142.289 76.5797C142.737 76.0891 142.961 75.4811 142.961 74.7557C142.961 74.0304 142.737 73.4224 142.289 72.9317C141.841 72.4411 141.271 72.1957 140.577 72.1957C139.884 72.1957 139.313 72.4411 138.865 72.9317C138.417 73.4224 138.193 74.0304 138.193 74.7557C138.193 75.4811 138.417 76.0891 138.865 76.5797ZM150.578 78.9157C149.362 78.9157 148.359 78.5264 147.57 77.7477C146.791 76.9691 146.402 75.9717 146.402 74.7557C146.402 73.5717 146.796 72.5851 147.586 71.7957C148.375 70.9957 149.372 70.5957 150.578 70.5957C151.687 70.5957 152.604 70.9477 153.33 71.6517C154.066 72.3557 154.434 73.3264 154.434 74.5637C154.434 74.7771 154.428 74.9691 154.418 75.1397H148.13C148.172 75.7904 148.423 76.3184 148.882 76.7237C149.34 77.1184 149.911 77.3157 150.594 77.3157C151.618 77.3157 152.38 76.9104 152.882 76.0997L154.226 77.0597C153.458 78.2971 152.242 78.9157 150.578 78.9157ZM148.21 73.8597H152.658C152.562 73.3051 152.311 72.8731 151.906 72.5637C151.511 72.2437 151.047 72.0837 150.514 72.0837C149.959 72.0837 149.463 72.2384 149.026 72.5477C148.599 72.8571 148.327 73.2944 148.21 73.8597ZM159.891 78.9157C158.686 78.9157 157.678 78.5211 156.867 77.7317C156.067 76.9317 155.667 75.9397 155.667 74.7557C155.667 73.5717 156.067 72.5851 156.867 71.7957C157.678 70.9957 158.686 70.5957 159.891 70.5957C160.712 70.5957 161.448 70.7931 162.099 71.1877C162.76 71.5824 163.267 72.1211 163.619 72.8037L162.083 73.6357C161.88 73.2091 161.587 72.8677 161.203 72.6117C160.819 72.3557 160.382 72.2277 159.891 72.2277C159.187 72.2277 158.606 72.4731 158.147 72.9637C157.688 73.4437 157.459 74.0411 157.459 74.7557C157.459 75.4704 157.688 76.0731 158.147 76.5637C158.606 77.0437 159.187 77.2837 159.891 77.2837C160.382 77.2837 160.819 77.1557 161.203 76.8997C161.587 76.6437 161.88 76.3024 162.083 75.8757L163.619 76.7077C163.267 77.3904 162.76 77.9291 162.099 78.3237C161.448 78.7184 160.712 78.9157 159.891 78.9157ZM168.843 78.9157C167.627 78.9157 166.625 78.5264 165.835 77.7477C165.057 76.9691 164.667 75.9717 164.667 74.7557C164.667 73.5717 165.062 72.5851 165.851 71.7957C166.641 70.9957 167.638 70.5957 168.843 70.5957C169.953 70.5957 170.87 70.9477 171.595 71.6517C172.331 72.3557 172.699 73.3264 172.699 74.5637C172.699 74.7771 172.694 74.9691 172.683 75.1397H166.395C166.438 75.7904 166.689 76.3184 167.147 76.7237C167.606 77.1184 168.177 77.3157 168.859 77.3157C169.883 77.3157 170.646 76.9104 171.147 76.0997L172.491 77.0597C171.723 78.2971 170.507 78.9157 168.843 78.9157ZM166.475 73.8597H170.923C170.827 73.3051 170.577 72.8731 170.171 72.5637C169.777 72.2437 169.313 72.0837 168.779 72.0837C168.225 72.0837 167.729 72.2384 167.291 72.5477C166.865 72.8571 166.593 73.2944 166.475 73.8597ZM176.269 82.0997H174.509V70.7557H176.269V71.8277C176.514 71.4864 176.866 71.1984 177.325 70.9637C177.794 70.7184 178.301 70.5957 178.845 70.5957C179.933 70.5957 180.845 71.0011 181.581 71.8117C182.327 72.6224 182.701 73.6037 182.701 74.7557C182.701 75.9077 182.327 76.8891 181.581 77.6997C180.845 78.5104 179.933 78.9157 178.845 78.9157C178.301 78.9157 177.794 78.7984 177.325 78.5637C176.866 78.3184 176.514 78.0251 176.269 77.6837V82.0997ZM178.525 77.3157C179.218 77.3157 179.789 77.0704 180.237 76.5797C180.685 76.0891 180.909 75.4811 180.909 74.7557C180.909 74.0304 180.685 73.4224 180.237 72.9317C179.789 72.4411 179.218 72.1957 178.525 72.1957C177.821 72.1957 177.245 72.4411 176.797 72.9317C176.349 73.4224 176.125 74.0304 176.125 74.7557C176.125 75.4811 176.349 76.0891 176.797 76.5797C177.245 77.0704 177.821 77.3157 178.525 77.3157ZM187.809 78.8357C186.998 78.8357 186.337 78.6117 185.825 78.1637C185.323 77.7051 185.073 77.0437 185.073 76.1797V72.3237H183.409V70.7557H185.073V68.5317H186.833V70.7557H189.121V72.3237H186.833V75.8917C186.833 76.3824 186.939 76.7344 187.153 76.9477C187.366 77.1504 187.707 77.2517 188.177 77.2517C188.561 77.2517 188.875 77.1984 189.121 77.0917V78.6597C188.737 78.7771 188.299 78.8357 187.809 78.8357ZM191.67 69.0117C191.35 69.0117 191.073 68.8997 190.838 68.6757C190.603 68.4411 190.486 68.1584 190.486 67.8277C190.486 67.5077 190.603 67.2357 190.838 67.0117C191.073 66.7771 191.35 66.6597 191.67 66.6597C192.001 66.6597 192.278 66.7771 192.502 67.0117C192.726 67.2357 192.838 67.5077 192.838 67.8277C192.838 68.1584 192.726 68.4411 192.502 68.6757C192.278 68.8997 192.001 69.0117 191.67 69.0117ZM190.79 78.7557V70.7557H192.55V78.7557H190.79ZM197.411 78.7557L193.795 70.7557H195.747L198.179 76.3717L200.627 70.7557H202.595L198.963 78.7557H197.411ZM207.234 78.9157C206.018 78.9157 205.015 78.5264 204.226 77.7477C203.447 76.9691 203.058 75.9717 203.058 74.7557C203.058 73.5717 203.453 72.5851 204.242 71.7957C205.031 70.9957 206.029 70.5957 207.234 70.5957C208.343 70.5957 209.261 70.9477 209.986 71.6517C210.722 72.3557 211.09 73.3264 211.09 74.5637C211.09 74.7771 211.085 74.9691 211.074 75.1397H204.786C204.829 75.7904 205.079 76.3184 205.538 76.7237C205.997 77.1184 206.567 77.3157 207.25 77.3157C208.274 77.3157 209.037 76.9104 209.538 76.0997L210.882 77.0597C210.114 78.2971 208.898 78.9157 207.234 78.9157ZM204.866 73.8597H209.314C209.218 73.3051 208.967 72.8731 208.562 72.5637C208.167 72.2437 207.703 72.0837 207.17 72.0837C206.615 72.0837 206.119 72.2384 205.682 72.5477C205.255 72.8571 204.983 73.2944 204.866 73.8597ZM74.4617 102.756V94.7557H76.2217V96.1797C76.371 95.7317 76.643 95.3691 77.0377 95.0917C77.443 94.8144 77.875 94.6757 78.3337 94.6757C78.611 94.6757 78.8404 94.6971 79.0217 94.7397V96.5477C78.7657 96.4517 78.4724 96.4037 78.1417 96.4037C77.6084 96.4037 77.155 96.6224 76.7817 97.0597C76.4084 97.4864 76.2217 98.0837 76.2217 98.8517V102.756H74.4617ZM83.8746 102.916C82.6586 102.916 81.6559 102.526 80.8666 101.748C80.0879 100.969 79.6986 99.9717 79.6986 98.7557C79.6986 97.5717 80.0933 96.5851 80.8826 95.7957C81.6719 94.9957 82.6693 94.5957 83.8746 94.5957C84.9839 94.5957 85.9013 94.9477 86.6266 95.6517C87.3626 96.3557 87.7306 97.3264 87.7306 98.5637C87.7306 98.7771 87.7253 98.9691 87.7146 99.1397H81.4266C81.4693 99.7904 81.7199 100.318 82.1786 100.724C82.6373 101.118 83.2079 101.316 83.8906 101.316C84.9146 101.316 85.6773 100.91 86.1786 100.1L87.5226 101.06C86.7546 102.297 85.5386 102.916 83.8746 102.916ZM81.5066 97.8597H85.9546C85.8586 97.3051 85.6079 96.8731 85.2026 96.5637C84.8079 96.2437 84.3439 96.0837 83.8106 96.0837C83.2559 96.0837 82.7599 96.2384 82.3226 96.5477C81.8959 96.8571 81.6239 97.2944 81.5066 97.8597ZM97.1398 106.1H95.3798V101.684C95.1345 102.025 94.7825 102.318 94.3238 102.564C93.8652 102.798 93.3638 102.916 92.8198 102.916C91.7318 102.916 90.8145 102.51 90.0678 101.7C89.3318 100.889 88.9638 99.9077 88.9638 98.7557C88.9638 97.6037 89.3318 96.6224 90.0678 95.8117C90.8145 95.0011 91.7318 94.5957 92.8198 94.5957C93.3638 94.5957 93.8652 94.7184 94.3238 94.9637C94.7825 95.1984 95.1345 95.4864 95.3798 95.8277V94.7557H97.1398V106.1ZM91.4278 100.58C91.8758 101.07 92.4465 101.316 93.1398 101.316C93.8332 101.316 94.4038 101.07 94.8518 100.58C95.2998 100.089 95.5238 99.4811 95.5238 98.7557C95.5238 98.0304 95.2998 97.4224 94.8518 96.9317C94.4038 96.4411 93.8332 96.1957 93.1398 96.1957C92.4465 96.1957 91.8758 96.4411 91.4278 96.9317C90.9798 97.4224 90.7558 98.0304 90.7558 98.7557C90.7558 99.4811 90.9798 100.089 91.4278 100.58ZM102.388 102.916C101.471 102.916 100.746 102.612 100.212 102.004C99.6789 101.385 99.4122 100.564 99.4122 99.5397V94.7557H101.172V99.2517C101.172 99.8917 101.311 100.398 101.588 100.772C101.866 101.134 102.26 101.316 102.772 101.316C103.37 101.316 103.844 101.092 104.196 100.644C104.548 100.185 104.724 99.5344 104.724 98.6917V94.7557H106.484V102.756H104.724V101.668C104.255 102.5 103.476 102.916 102.388 102.916ZM112.468 102.916C111.252 102.916 110.25 102.526 109.46 101.748C108.682 100.969 108.292 99.9717 108.292 98.7557C108.292 97.5717 108.687 96.5851 109.476 95.7957C110.266 94.9957 111.263 94.5957 112.468 94.5957C113.578 94.5957 114.495 94.9477 115.22 95.6517C115.956 96.3557 116.324 97.3264 116.324 98.5637C116.324 98.7771 116.319 98.9691 116.308 99.1397H110.02C110.063 99.7904 110.314 100.318 110.772 100.724C111.231 101.118 111.802 101.316 112.484 101.316C113.508 101.316 114.271 100.91 114.772 100.1L116.116 101.06C115.348 102.297 114.132 102.916 112.468 102.916ZM110.1 97.8597H114.548C114.452 97.3051 114.202 96.8731 113.796 96.5637C113.402 96.2437 112.938 96.0837 112.404 96.0837C111.85 96.0837 111.354 96.2384 110.916 96.5477C110.49 96.8571 110.218 97.2944 110.1 97.8597ZM120.678 102.916C119.942 102.916 119.291 102.777 118.726 102.5C118.16 102.212 117.739 101.785 117.462 101.22L118.758 100.292C118.918 100.633 119.174 100.905 119.526 101.108C119.878 101.3 120.262 101.396 120.678 101.396C121.008 101.396 121.28 101.321 121.494 101.172C121.718 101.022 121.83 100.814 121.83 100.548C121.83 100.313 121.739 100.121 121.558 99.9717C121.387 99.8224 121.067 99.6731 120.598 99.5237L119.894 99.3317C118.475 98.9477 117.776 98.1317 117.798 96.8837C117.798 96.1904 118.07 95.6357 118.614 95.2197C119.158 94.8037 119.84 94.5957 120.662 94.5957C121.899 94.5957 122.8 95.0491 123.366 95.9557L122.15 96.8837C121.744 96.3397 121.238 96.0677 120.63 96.0677C120.342 96.0677 120.091 96.1371 119.878 96.2757C119.664 96.4037 119.558 96.5851 119.558 96.8197C119.558 97.0331 119.627 97.2144 119.766 97.3637C119.904 97.5131 120.155 97.6464 120.518 97.7637L121.334 98.0037C122.08 98.2277 122.64 98.5317 123.014 98.9157C123.387 99.2891 123.574 99.7957 123.574 100.436C123.574 101.193 123.302 101.796 122.758 102.244C122.214 102.692 121.52 102.916 120.678 102.916ZM128.762 102.836C127.951 102.836 127.29 102.612 126.778 102.164C126.277 101.705 126.026 101.044 126.026 100.18V96.3237H124.362V94.7557H126.026V92.5317H127.786V94.7557H130.074V96.3237H127.786V99.8917C127.786 100.382 127.893 100.734 128.106 100.948C128.319 101.15 128.661 101.252 129.13 101.252C129.514 101.252 129.829 101.198 130.074 101.092V102.66C129.69 102.777 129.253 102.836 128.762 102.836Z" fill="#24272A"/>
<path d="M46.8291 55.9469H244.952H46.8291ZM244.952 113.565H46.8291H244.952ZM49.2335 113.565C46.5777 113.565 44.4247 111.412 44.4247 108.756V60.7557C44.4247 58.0999 46.5777 55.9469 49.2335 55.9469C49.2335 55.9469 49.2335 57.0234 49.2335 58.3513V111.16C49.2335 112.488 49.2335 113.565 49.2335 113.565ZM244.952 55.9469V113.565V55.9469Z" fill="#D73847" mask="url(#path-8-inside-2_5965_47077)"/>
<path d="M229.42 64.983C230.308 64.6 230.718 63.5687 230.335 62.6798C229.953 61.7909 228.923 61.381 228.035 61.764C227.147 62.147 226.738 63.178 227.12 64.0669C227.503 64.9558 228.533 65.366 229.42 64.983Z" fill="url(#paint1_linear_5965_47077)"/>
<path d="M228.952 104.592C228.668 104.592 228.388 104.528 228.128 104.398L213 96.8425C212.308 96.4974 211.887 95.7527 211.936 94.9598C211.984 94.1657 212.494 93.4841 213.223 93.233L234.056 86.0584C234.754 85.8185 235.524 86.0164 236.03 86.5681C236.537 87.121 236.686 87.9263 236.411 88.6314L230.709 103.361C230.513 103.864 230.125 104.262 229.636 104.456C229.415 104.548 229.184 104.592 228.952 104.592ZM218.832 95.4163L227.947 99.9709L231.384 91.093L218.832 95.4163Z" fill="url(#paint2_linear_5965_47077)"/>
<path fill-rule="evenodd" clip-rule="evenodd" d="M213.718 0.0645706C223.208 0.596608 232.599 4.57358 239.06 11.5523C245.067 18.0409 249.15 27.4198 247.462 35.973C245.637 47.637 240.307 58.7326 232.329 67.429C231.384 68.4605 230.242 69.5305 228.844 69.5359C226.641 69.5449 225.332 66.7798 225.856 64.6369C226.306 62.7992 227.596 61.3348 228.86 59.8988C229.07 59.6608 229.279 59.4235 229.483 59.1855C233.577 54.4157 236.247 48.4353 237.068 42.1995C237.299 40.4424 236.793 37.9857 235.023 38.0146C233.564 38.0384 233.143 39.5946 232.711 41.1912C232.294 42.7327 231.867 44.3118 230.486 44.5859C229.181 44.8455 228.019 43.4973 227.905 42.1706C227.805 40.9955 228.256 39.8643 228.697 38.7603C228.754 38.6179 228.811 38.4759 228.866 38.3344C230.619 33.8415 231.028 28.8629 230.167 24.1199C221.101 19.6031 210.788 17.5681 200.698 18.498C196.188 18.9132 191.751 19.8879 187.316 20.8622C182.176 21.9915 177.04 23.12 171.795 23.3756C170.569 23.4344 169.194 23.3957 168.449 22.267C167.823 21.319 167.94 20.0655 168.649 19.1792C170.107 17.3564 172.391 17.2846 174.511 17.218L174.581 17.2158C184.247 16.9089 193.866 15.1736 203.031 12.0844C203.085 12.0671 203.139 12.0457 203.194 12.0242C205.303 11.1708 204.624 7.98978 202.349 8.00558C199.064 8.02855 196.844 8.40712 192.537 9.73232C184.784 12.1561 183.002 9.54874 186.543 7.19668C194.697 2.30615 204.228 -0.466085 213.718 0.0645706Z" fill="url(#paint3_linear_5965_47077)"/>
<path d="M162.943 15.5035C161.831 15.5035 160.706 15.2066 159.689 14.5856C156.746 12.7828 155.815 8.91913 157.615 5.97047C159.416 3.02326 163.275 2.09107 166.22 3.89378C169.163 5.69655 170.095 9.56021 168.294 12.5089C167.115 14.4379 165.054 15.5035 162.943 15.5035ZM162.962 4.72132C161.441 4.72132 159.954 5.49001 159.105 6.88121C157.807 9.00666 158.477 11.7946 160.601 13.094C162.726 14.3934 165.509 13.7222 166.807 11.5953C168.105 9.46987 167.434 6.68182 165.31 5.38247C164.575 4.93501 163.763 4.72132 162.962 4.72132Z" fill="#FFB0EB"/>
<path d="M258.275 26.6785C259.242 26.6785 260.025 25.8938 260.025 24.9259C260.025 23.958 259.242 23.1733 258.275 23.1733C257.308 23.1733 256.524 23.958 256.524 24.9259C256.524 25.8938 257.308 26.6785 258.275 26.6785Z" fill="url(#paint4_linear_5965_47077)"/>
<path d="M200.816 25.372C210 24.2017 211.293 28.576 204.065 35.6249C196.837 42.6739 196.284 37.6027 197.869 33.3231C199.455 29.0435 197.088 29.0005 193.847 29.8122C190.604 30.624 191.156 27.8259 200.816 25.372Z" fill="#75C4FD"/>
<path d="M37.0515 50.7559C37.7563 50.8479 38.4696 50.6387 39.1144 50.3399C40.368 49.7605 41.4576 48.833 42.2315 47.6897C44.3773 44.5188 41.0896 42.6097 38.6017 44.8633C37.3667 45.9819 33.1268 50.2414 37.0515 50.7559Z" fill="url(#paint5_linear_5965_47077)"/>
<path d="M95.9864 122.493C89.2912 123.796 80.8084 116.467 87.9848 107.704C93.0943 101.438 93.2404 105.741 92.964 110.901C93.0857 114.132 93.5799 115.48 98.1852 116.14C102.79 116.8 102.682 121.191 95.9864 122.493Z" fill="url(#paint6_linear_5965_47077)"/>
<path d="M17.0911 85.7573C15.5871 84.9314 13.5987 85.9953 12.2178 86.6235C12.0389 86.7052 11.3041 87.0851 11.0447 87.1699C10.1105 87.4752 8.71693 88.22 8.00789 89.0946C7.26012 90.4988 9.12518 91.6691 11.8384 91.6631C13.4852 91.7365 15.3548 91.1113 16.6924 90.1658C17.4531 89.6284 18.1567 88.8866 18.1867 87.9002C18.2126 87.0569 17.8529 86.1762 17.0911 85.7573Z" fill="url(#paint7_linear_5965_47077)"/>
<path d="M38.1358 111.846C37.3322 111.846 36.5186 111.632 35.7838 111.181C33.6552 109.879 32.9834 107.085 34.284 104.955C35.5846 102.823 38.375 102.15 40.5036 103.453C41.535 104.084 42.2584 105.079 42.542 106.255C42.8256 107.431 42.6337 108.647 42.0034 109.68C41.1511 111.076 39.6613 111.846 38.1358 111.846ZM38.1487 104.052C37.05 104.052 35.9757 104.607 35.3612 105.614C34.9071 106.358 34.7696 107.235 34.973 108.082C35.1778 108.93 35.6992 109.649 36.4427 110.103C37.9768 111.043 39.9879 110.556 40.9262 109.02C41.3803 108.276 41.5177 107.4 41.3143 106.552C41.1096 105.704 40.5881 104.986 39.8447 104.531C39.3147 104.207 38.7288 104.052 38.1487 104.052Z" fill="#FFD23D"/>
<path d="M82.2005 106.294C83.1672 106.294 83.951 105.509 83.951 104.541C83.951 103.573 83.1672 102.789 82.2005 102.789C81.2338 102.789 80.4501 103.573 80.4501 104.541C80.4501 105.509 81.2338 106.294 82.2005 106.294Z" fill="url(#paint8_linear_5965_47077)"/>
<path d="M72.1534 142.043L74.2413 140.405C74.488 140.21 74.6892 139.787 74.6892 139.464V136.235C74.693 135.785 74.3665 135.29 73.9679 135.131L72.1534 142.043ZM72.1534 142.043C71.7851 142.334 71.1815 142.334 70.8133 142.043L68.7254 140.405M72.1534 142.043L68.7254 140.405M68.7254 140.405C68.4787 140.214 68.2775 139.787 68.2775 139.464M68.7254 140.405L68.2775 139.464M68.2775 136.235C68.2775 135.785 68.6039 135.29 69.0063 135.131L68.2775 136.235ZM68.2775 136.235V139.464M68.2775 136.235V139.464M71.7716 134.59L73.8563 135.41C73.8566 135.41 73.8568 135.41 73.857 135.41C73.9866 135.462 74.123 135.578 74.2281 135.739C74.333 135.899 74.39 136.078 74.3887 136.233L74.3887 136.233V136.235V139.464C74.3887 139.569 74.354 139.711 74.2864 139.853C74.2187 139.995 74.1322 140.108 74.0552 140.169C74.055 140.169 74.0549 140.169 74.0547 140.169L71.9678 141.807L71.967 141.807C71.708 142.012 71.2587 142.012 70.9997 141.807L70.9989 141.807L68.911 140.168L68.911 140.168L68.9096 140.167C68.8346 140.109 68.7485 139.998 68.6804 139.855C68.6128 139.712 68.578 139.569 68.578 139.464V136.235C68.578 136.079 68.6361 135.9 68.7418 135.739C68.8479 135.579 68.9852 135.463 69.1167 135.41C69.1168 135.41 69.117 135.41 69.1171 135.41L71.2033 134.59C71.2667 134.565 71.3693 134.547 71.4871 134.547C71.6049 134.547 71.7076 134.565 71.7709 134.59C71.7712 134.59 71.7714 134.59 71.7716 134.59ZM72.1901 136.729L70.9766 138.004L70.7842 137.802C70.5557 137.562 70.1751 137.562 69.9465 137.802C69.7262 138.033 69.7259 138.406 69.9457 138.638C69.946 138.638 69.9463 138.639 69.9465 138.639L70.5526 139.283L70.5526 139.283L70.5539 139.285C70.669 139.406 70.8205 139.466 70.9728 139.466C71.125 139.466 71.2765 139.406 71.3916 139.285L73.0225 137.572C73.2491 137.34 73.2482 136.961 73.0278 136.729C72.7992 136.489 72.4186 136.489 72.1901 136.729Z" fill="#0376C9" stroke="#0376C9" stroke-width="0.601105"/>
<path d="M82.1167 142.398C80.7127 142.398 79.5847 141.738 79.1287 140.862L80.0287 140.19C80.4967 140.91 81.1807 141.354 82.1407 141.354C83.0167 141.354 83.7127 140.886 83.7127 140.082C83.7127 139.398 83.2927 138.942 82.4887 138.642L81.3607 138.21C80.0167 137.718 79.4287 137.022 79.4287 135.858C79.4287 134.466 80.5687 133.59 82.0927 133.59C83.1607 133.59 84.0487 134.07 84.5767 134.754L83.7607 135.474C83.3287 134.958 82.8007 134.634 82.0687 134.634C81.2287 134.634 80.5327 135.102 80.5327 135.81C80.5327 136.53 80.9527 136.854 81.8167 137.178L82.8487 137.574C84.1087 138.054 84.8287 138.774 84.8287 140.034C84.8287 141.474 83.6887 142.398 82.1167 142.398ZM89.2032 142.374C87.3312 142.374 86.0952 141.018 86.0952 139.254C86.0952 137.49 87.3792 136.134 89.2152 136.134C90.7752 136.134 92.0712 137.226 92.0712 139.146C92.0712 139.254 92.0712 139.326 92.0592 139.458H87.1392C87.1752 140.574 88.0272 141.426 89.2152 141.426C90.1392 141.426 90.7152 141.018 91.0872 140.382L91.9032 140.946C91.3632 141.822 90.4512 142.374 89.2032 142.374ZM87.2112 138.618H91.0152C90.8592 137.634 90.0912 137.046 89.1792 137.046C88.2792 137.046 87.4032 137.622 87.2112 138.618ZM96.4618 142.374C94.6378 142.374 93.3178 140.994 93.3178 139.254C93.3178 137.514 94.6378 136.134 96.4618 136.134C97.7098 136.134 98.7058 136.782 99.2338 137.742L98.3338 138.246C97.9978 137.562 97.3258 137.094 96.4618 137.094C95.2138 137.094 94.3618 138.054 94.3618 139.254C94.3618 140.454 95.2138 141.414 96.4618 141.414C97.3258 141.414 97.9978 140.946 98.3338 140.262L99.2338 140.766C98.7058 141.726 97.7098 142.374 96.4618 142.374ZM102.945 142.374C101.637 142.374 100.737 141.426 100.737 139.938V136.254H101.769V139.782C101.769 140.79 102.297 141.426 103.125 141.426C104.049 141.426 104.793 140.61 104.793 139.23V136.254H105.825V142.254H104.793V141.33C104.397 142.038 103.713 142.374 102.945 142.374ZM108.02 142.254V136.254H109.052V137.418C109.28 136.65 110.048 136.194 110.732 136.194C110.888 136.194 111.044 136.206 111.2 136.242V137.31C111.008 137.226 110.84 137.214 110.636 137.214C109.88 137.214 109.052 137.874 109.052 139.278V142.254H108.02ZM113.193 134.646C112.773 134.646 112.449 134.334 112.449 133.914C112.449 133.518 112.773 133.182 113.193 133.182C113.613 133.182 113.913 133.518 113.913 133.914C113.913 134.334 113.613 134.646 113.193 134.646ZM112.665 142.254V136.254H113.697V142.254H112.665ZM118.231 142.314C117.175 142.314 116.395 141.726 116.395 140.478V137.202H115.123V136.254H116.395V134.586H117.427V136.254H119.155V137.202H117.427V140.346C117.427 141.114 117.763 141.366 118.423 141.366C118.675 141.366 118.963 141.33 119.155 141.246V142.17C118.903 142.254 118.603 142.314 118.231 142.314ZM122.319 144.762H121.167L122.475 141.942L119.847 136.254H120.987L123.051 140.814L125.103 136.254H126.255L122.319 144.762ZM132.883 142.374C131.203 142.374 129.943 140.97 129.943 139.254C129.943 137.538 131.203 136.134 132.883 136.134C133.795 136.134 134.599 136.602 134.995 137.178V136.254H136.027V142.254H134.995V141.33C134.599 141.906 133.795 142.374 132.883 142.374ZM133.039 141.426C134.239 141.426 135.079 140.466 135.079 139.254C135.079 138.042 134.239 137.082 133.039 137.082C131.827 137.082 130.987 138.042 130.987 139.254C130.987 140.466 131.827 141.426 133.039 141.426ZM140.691 142.374C139.011 142.374 137.751 140.97 137.751 139.254C137.751 137.538 139.011 136.134 140.691 136.134C141.603 136.134 142.407 136.602 142.803 137.178V133.254H143.835V142.254H142.803V141.33C142.407 141.906 141.603 142.374 140.691 142.374ZM140.847 141.426C142.047 141.426 142.887 140.466 142.887 139.254C142.887 138.042 142.047 137.082 140.847 137.082C139.635 137.082 138.795 138.042 138.795 139.254C138.795 140.466 139.635 141.426 140.847 141.426ZM147.9 142.254L145.128 136.254H146.28L148.332 140.802L150.384 136.254H151.536L148.764 142.254H147.9ZM153.357 134.646C152.937 134.646 152.613 134.334 152.613 133.914C152.613 133.518 152.937 133.182 153.357 133.182C153.777 133.182 154.077 133.518 154.077 133.914C154.077 134.334 153.777 134.646 153.357 134.646ZM152.829 142.254V136.254H153.861V142.254H152.829ZM158.743 142.374C156.919 142.374 155.599 140.994 155.599 139.254C155.599 137.514 156.919 136.134 158.743 136.134C159.991 136.134 160.987 136.782 161.515 137.742L160.615 138.246C160.279 137.562 159.607 137.094 158.743 137.094C157.495 137.094 156.643 138.054 156.643 139.254C156.643 140.454 157.495 141.414 158.743 141.414C159.607 141.414 160.279 140.946 160.615 140.262L161.515 140.766C160.987 141.726 159.991 142.374 158.743 142.374ZM165.742 142.374C163.87 142.374 162.634 141.018 162.634 139.254C162.634 137.49 163.918 136.134 165.754 136.134C167.314 136.134 168.61 137.226 168.61 139.146C168.61 139.254 168.61 139.326 168.598 139.458H163.678C163.714 140.574 164.566 141.426 165.754 141.426C166.678 141.426 167.254 141.018 167.626 140.382L168.442 140.946C167.902 141.822 166.99 142.374 165.742 142.374ZM163.75 138.618H167.554C167.398 137.634 166.63 137.046 165.718 137.046C164.818 137.046 163.942 137.622 163.75 138.618ZM174.972 142.326C174.423 142.326 173.94 142.045 173.702 141.699V142.254H173.082V136.844H173.702V139.203C173.94 138.857 174.423 138.575 174.972 138.575C175.981 138.575 176.739 139.419 176.739 140.451C176.739 141.482 175.981 142.326 174.972 142.326ZM174.878 141.756C175.599 141.756 176.104 141.179 176.104 140.451C176.104 139.722 175.599 139.145 174.878 139.145C174.156 139.145 173.652 139.722 173.652 140.451C173.652 141.179 174.156 141.756 174.878 141.756ZM178.664 143.762H177.972L178.758 142.067L177.178 138.648H177.864L179.104 141.389L180.338 138.648H181.03L178.664 143.762Z" fill="#535A61"/>
<path d="M183.622 142.254V137.133H185.303C186.255 137.133 186.832 137.768 186.832 138.489C186.832 139.001 186.608 139.333 186.284 139.535C186.781 139.715 187.171 140.076 187.171 140.761C187.171 141.612 186.493 142.254 185.454 142.254H183.622ZM184.293 141.648H185.483C186.176 141.648 186.515 141.295 186.515 140.783C186.515 140.285 186.176 139.91 185.49 139.91H184.293V141.648ZM184.293 139.333H185.303C185.851 139.333 186.176 139.001 186.176 138.539C186.176 138.107 185.851 137.739 185.303 137.739H184.293V139.333ZM188.208 142.254V136.844H188.828V142.254H188.208ZM191.756 142.326C190.659 142.326 189.866 141.49 189.866 140.451C189.866 139.412 190.659 138.575 191.756 138.575C192.838 138.575 193.638 139.412 193.638 140.451C193.638 141.49 192.838 142.326 191.756 142.326ZM191.756 141.749C192.506 141.749 193.004 141.172 193.004 140.451C193.004 139.73 192.506 139.152 191.756 139.152C191.006 139.152 190.501 139.73 190.501 140.451C190.501 141.172 191.006 141.749 191.756 141.749ZM196.288 142.326C195.191 142.326 194.398 141.497 194.398 140.451C194.398 139.405 195.191 138.575 196.288 138.575C197.038 138.575 197.637 138.965 197.954 139.542L197.413 139.845C197.211 139.434 196.807 139.152 196.288 139.152C195.538 139.152 195.025 139.73 195.025 140.451C195.025 141.172 195.538 141.749 196.288 141.749C196.807 141.749 197.211 141.468 197.413 141.057L197.954 141.36C197.637 141.937 197.038 142.326 196.288 142.326ZM201.483 142.254L199.528 140.451V142.254H198.908V136.844H199.528V140.054L201.101 138.648H201.923L200.149 140.242L202.32 142.254H201.483ZM204.2 142.326C203.19 142.326 202.433 141.482 202.433 140.451C202.433 139.419 203.19 138.575 204.2 138.575C204.748 138.575 205.232 138.857 205.47 139.203V138.648H206.09V142.254H205.47V141.699C205.232 142.045 204.748 142.326 204.2 142.326ZM204.294 141.756C205.015 141.756 205.52 141.179 205.52 140.451C205.52 139.722 205.015 139.145 204.294 139.145C203.565 139.145 203.061 139.722 203.061 140.451C203.061 141.179 203.565 141.756 204.294 141.756ZM207.725 137.681C207.473 137.681 207.278 137.493 207.278 137.241C207.278 137.003 207.473 136.801 207.725 136.801C207.978 136.801 208.158 137.003 208.158 137.241C208.158 137.493 207.978 137.681 207.725 137.681ZM207.408 142.254V138.648H208.028V142.254H207.408ZM210.841 142.326C209.831 142.326 209.073 141.482 209.073 140.451C209.073 139.419 209.831 138.575 210.841 138.575C211.389 138.575 211.872 138.857 212.11 139.203V136.844H212.73V142.254H212.11V141.699C211.872 142.045 211.389 142.326 210.841 142.326ZM210.934 141.756C211.656 141.756 212.161 141.179 212.161 140.451C212.161 139.722 211.656 139.145 210.934 139.145C210.206 139.145 209.701 139.722 209.701 140.451C209.701 141.179 210.206 141.756 210.934 141.756Z" fill="#0376C9"/>
<path fill-rule="evenodd" clip-rule="evenodd" d="M46.8292 71.796C46.5737 70.8436 46.3604 69.8762 46.1871 68.9016L46.8292 76.6669V71.796ZM48.4646 96.4482L49.1057 104.202C50.7809 105.991 52.8659 107.432 54.9988 108.591C57.5168 109.957 60.2397 111.145 62.9064 112.191C65.5715 113.237 68.5516 114.195 71.458 113.819C73.987 113.49 76.5753 111.778 75.6915 108.928C74.9108 106.787 72.6402 105.112 68.9453 103.148C68.1115 102.706 67.8946 101.603 68.5294 100.902C68.5312 100.9 68.5337 100.897 68.5363 100.894C68.5395 100.891 68.5429 100.888 68.5453 100.885C69.1026 100.27 70.1286 100.009 70.9684 99.8715C73.0932 99.5251 75.2187 99.7173 77.3385 99.9091C79.6668 100.12 81.9882 100.33 84.2943 99.8245C85.4446 99.5728 86.5846 99.2608 87.7251 98.9487C89.6738 98.4155 91.6239 97.8819 93.6301 97.6474C94.6721 97.525 96.0761 97.3701 96.9947 97.9997C97.9591 98.6618 97.9661 100.147 97.6303 101.173C97.5123 101.531 97.134 102.465 96.7417 103.433C96.2787 104.576 95.7961 105.767 95.6987 106.118C95.1022 108.257 95.4406 110.732 97.6744 111.768C100.068 112.874 102.491 111.278 104.446 109.99C104.483 109.965 104.521 109.94 104.558 109.916C106.972 108.322 109.08 106.361 110.935 104.154C112.213 102.632 113.387 101.039 114.368 99.3329L114.156 96.7779H49.8347C49.3412 96.7779 48.8755 96.6589 48.4646 96.4482Z" fill="url(#paint9_linear_5965_47077)"/>
<path fill-rule="evenodd" clip-rule="evenodd" d="M46.8291 48.0378C41.0097 54.4207 35.0513 60.7319 28.0493 65.768C26.9549 66.5548 25.7631 67.3369 24.4183 67.4228C23.0728 67.5088 21.5731 66.6269 21.4656 65.2817C21.3862 64.278 21.9706 63.5011 22.5562 62.7228C23.1521 61.9307 23.7491 61.1371 23.6486 60.1014C23.4241 57.7865 20.0494 55.9123 17.9192 55.8071C13.7733 55.6031 8.77831 59.817 5.20467 62.8319C4.56632 63.3704 3.97333 63.8707 3.43863 64.3007C1.89879 65.5383 0.278681 67.0567 0.1813 69.0302C-0.0440437 73.5689 2.82265 72.6521 5.56797 71.7742C8.45972 70.8495 11.2168 69.9678 10.0837 75.5503C9.49496 78.4501 11.9041 81.3426 14.7637 82.0946C17.6208 82.846 20.6767 81.9022 23.2475 80.4463C24.6304 79.6641 25.9218 78.7367 27.2136 77.8089C28.3251 77.0107 29.4369 76.2123 30.6075 75.5059C32.2147 74.5351 34.525 73.839 35.7713 75.2432C37.2855 76.9485 35.548 79.4768 34.2518 81.3528C31.7032 85.0418 30.8669 89.8663 32.0244 94.199C32.4195 95.6771 33.0913 97.1775 34.5412 97.8832C35.27 98.2372 36.128 98.2835 36.846 97.906C38.3169 97.133 38.3013 95.2888 37.8931 93.8245C37.2441 90.0195 40.1505 90.2077 40.2405 91.9172C40.6416 99.4106 46.1206 104.605 53.4608 106.347L52.6782 96.7778H49.8347C48.1748 96.7778 46.8291 95.4321 46.8291 93.7722V48.0378Z" fill="url(#paint10_linear_5965_47077)"/>
<defs>
<linearGradient id="paint0_linear_5965_47077" x1="53.9003" y1="52.319" x2="7.75796" y2="52.319" gradientUnits="userSpaceOnUse">
<stop stop-color="#FFE466"/>
<stop offset="1" stop-color="#FFAFEA"/>
</linearGradient>
<linearGradient id="paint1_linear_5965_47077" x1="227.12" y1="64.0671" x2="230.336" y2="62.6828" gradientUnits="userSpaceOnUse">
<stop stop-color="#75C3FC"/>
<stop offset="1" stop-color="#75C3FC"/>
</linearGradient>
<linearGradient id="paint2_linear_5965_47077" x1="211.931" y1="95.2765" x2="236.547" y2="95.2765" gradientUnits="userSpaceOnUse">
<stop stop-color="#75C3FC"/>
<stop offset="0.0929" stop-color="#81C2F6"/>
<stop offset="1" stop-color="#F0B8BD"/>
</linearGradient>
<linearGradient id="paint3_linear_5965_47077" x1="225.889" y1="41.9813" x2="247.845" y2="41.9813" gradientUnits="userSpaceOnUse">
<stop stop-color="#FFE466"/>
<stop offset="1" stop-color="#FFAFEA"/>
</linearGradient>
<linearGradient id="paint4_linear_5965_47077" x1="256.525" y1="24.9257" x2="260.025" y2="24.9257" gradientUnits="userSpaceOnUse">
<stop stop-color="#75C3FC"/>
<stop offset="1" stop-color="#75C3FC"/>
</linearGradient>
<linearGradient id="paint5_linear_5965_47077" x1="68.3712" y1="19.2749" x2="20.3605" y2="65.7167" gradientUnits="userSpaceOnUse">
<stop stop-color="#FFE466"/>
<stop offset="1" stop-color="#FFAFEA"/>
</linearGradient>
<linearGradient id="paint6_linear_5965_47077" x1="119.086" y1="113.619" x2="97.3362" y2="113.619" gradientUnits="userSpaceOnUse">
<stop stop-color="#FFE466"/>
<stop offset="1" stop-color="#FFAFEA"/>
</linearGradient>
<linearGradient id="paint7_linear_5965_47077" x1="18.1885" y1="88.5626" x2="7.84218" y2="88.5626" gradientUnits="userSpaceOnUse">
<stop stop-color="#FFE466"/>
<stop offset="1" stop-color="#FFAFEA"/>
</linearGradient>
<linearGradient id="paint8_linear_5965_47077" x1="80.4505" y1="104.541" x2="83.9511" y2="104.541" gradientUnits="userSpaceOnUse">
<stop stop-color="#75C3FC"/>
<stop offset="1" stop-color="#75C3FC"/>
</linearGradient>
<linearGradient id="paint9_linear_5965_47077" x1="48.1419" y1="92.5648" x2="113.361" y2="87.1791" gradientUnits="userSpaceOnUse">
<stop stop-color="#FFE466"/>
<stop offset="1" stop-color="#FFAFEA"/>
</linearGradient>
<linearGradient id="paint10_linear_5965_47077" x1="44.9715" y1="76.2542" x2="-6.37778" y2="76.2542" gradientUnits="userSpaceOnUse">
<stop stop-color="#FFE466"/>
<stop offset="1" stop-color="#FFAFEA"/>
</linearGradient>
</defs>
</svg>
